<svg width="25" height="24" viewBox="0 0 25 24" fill="none" xmlns="http://www.w3.org/2000/svg">
<g clip-path="url(#clip0_63_1499)">
<path d="M4.42969 22.5977H20.4375C22.8867 22.5977 24.1055 21.3789 24.1055 18.9648V4.65625C24.1055 2.24219 22.8867 1.02344 20.4375 1.02344H4.42969C1.98047 1.02344 0.75 2.23047 0.75 4.65625V18.9648C0.75 21.3906 1.98047 22.5977 4.42969 22.5977ZM4.25391 20.7109C3.21094 20.7109 2.63672 20.1602 2.63672 19.0703V8.01953C2.63672 6.94141 3.21094 6.37891 4.25391 6.37891H20.5898C21.6328 6.37891 22.2188 6.94141 22.2188 8.01953V19.0703C22.2188 20.1602 21.6328 20.7109 20.5898 20.7109H4.25391ZM10.1484 10.5859H10.8398C11.25 10.5859 11.3789 10.4688 11.3789 10.0586V9.36719C11.3789 8.95703 11.25 8.82812 10.8398 8.82812H10.1484C9.73828 8.82812 9.59766 8.95703 9.59766 9.36719V10.0586C9.59766 10.4688 9.73828 10.5859 10.1484 10.5859ZM14.0391 10.5859H14.7305C15.1406 10.5859 15.2812 10.4688 15.2812 10.0586V9.36719C15.2812 8.95703 15.1406 8.82812 14.7305 8.82812H14.0391C13.6289 8.82812 13.4883 8.95703 13.4883 9.36719V10.0586C13.4883 10.4688 13.6289 10.5859 14.0391 10.5859ZM17.9297 10.5859H18.6211C19.0312 10.5859 19.1719 10.4688 19.1719 10.0586V9.36719C19.1719 8.95703 19.0312 8.82812 18.6211 8.82812H17.9297C17.5195 8.82812 17.3906 8.95703 17.3906 9.36719V10.0586C17.3906 10.4688 17.5195 10.5859 17.9297 10.5859ZM6.25781 14.418H6.9375C7.35938 14.418 7.48828 14.3008 7.48828 13.8906V13.1992C7.48828 12.7891 7.35938 12.6719 6.9375 12.6719H6.25781C5.83594 12.6719 5.70703 12.7891 5.70703 13.1992V13.8906C5.70703 14.3008 5.83594 14.418 6.25781 14.418ZM10.1484 14.418H10.8398C11.25 14.418 11.3789 14.3008 11.3789 13.8906V13.1992C11.3789 12.7891 11.25 12.6719 10.8398 12.6719H10.1484C9.73828 12.6719 9.59766 12.7891 9.59766 13.1992V13.8906C9.59766 14.3008 9.73828 14.418 10.1484 14.418ZM14.0391 14.418H14.7305C15.1406 14.418 15.2812 14.3008 15.2812 13.8906V13.1992C15.2812 12.7891 15.1406 12.6719 14.7305 12.6719H14.0391C13.6289 12.6719 13.4883 12.7891 13.4883 13.1992V13.8906C13.4883 14.3008 13.6289 14.418 14.0391 14.418ZM17.9297 14.418H18.6211C19.0312 14.418 19.1719 14.3008 19.1719 13.8906V13.1992C19.1719 12.7891 19.0312 12.6719 18.6211 12.6719H17.9297C17.5195 12.6719 17.3906 12.7891 17.3906 13.1992V13.8906C17.3906 14.3008 17.5195 14.418 17.9297 14.418ZM6.25781 18.2617H6.9375C7.35938 18.2617 7.48828 18.1328 7.48828 17.7227V17.0312C7.48828 16.6211 7.35938 16.5039 6.9375 16.5039H6.25781C5.83594 16.5039 5.70703 16.6211 5.70703 17.0312V17.7227C5.70703 18.1328 5.83594 18.2617 6.25781 18.2617ZM10.1484 18.2617H10.8398C11.25 18.2617 11.3789 18.1328 11.3789 17.7227V17.0312C11.3789 16.6211 11.25 16.5039 10.8398 16.5039H10.1484C9.73828 16.5039 9.59766 16.6211 9.59766 17.0312V17.7227C9.59766 18.1328 9.73828 18.2617 10.1484 18.2617ZM14.0391 18.2617H14.7305C15.1406 18.2617 15.2812 18.1328 15.2812 17.7227V17.0312C15.2812 16.6211 15.1406 16.5039 14.7305 16.5039H14.0391C13.6289 16.5039 13.4883 16.6211 13.4883 17.0312V17.7227C13.4883 18.1328 13.6289 18.2617 14.0391 18.2617Z" fill="black" fill-opacity="0.85"/>
</g>
<defs>
<clipPath id="clip0_63_1499">
<rect width="23.3555" height="21.5977" fill="white" transform="translate(0.75 1)"/>
</clipPath>
</defs>
</svg>
