<svg width="26" height="24" viewBox="0 0 26 24" fill="none" xmlns="http://www.w3.org/2000/svg">
<g clip-path="url(#clip0_63_869)">
<path d="M0.25 21.8828C0.25 22.4453 0.625 22.8086 1.1875 22.8086H24.4961C25.0117 22.8086 25.4453 22.3984 25.4453 21.8711C25.4453 21.3555 25.0117 20.9336 24.4961 20.9336H2.46484C2.21875 20.9336 2.13672 20.8516 2.13672 20.6055V2.07812C2.13672 1.57422 1.71484 1.14062 1.19922 1.14062C0.671875 1.14062 0.25 1.57422 0.25 2.07812V21.8828ZM1.48047 14.5938L9.01562 10.2344L14.4414 14.8867L24.0859 9.14453L23.3477 7.94922L14.5352 13.1992L9.13281 8.57031L1.48047 12.9883V14.5938ZM8.86328 11.8164C10.0117 11.8164 10.9492 10.8789 10.9492 9.73047C10.9492 8.58203 10.0117 7.65625 8.86328 7.65625C7.71484 7.65625 6.77734 8.58203 6.77734 9.73047C6.77734 10.8789 7.71484 11.8164 8.86328 11.8164ZM14.3945 16.1172C15.543 16.1172 16.4688 15.1797 16.4688 14.0312C16.4688 12.8828 15.543 11.957 14.3945 11.957C13.2461 11.957 12.3086 12.8828 12.3086 14.0312C12.3086 15.1797 13.2461 16.1172 14.3945 16.1172ZM23.2305 10.7852C24.3789 10.7852 25.3164 9.84766 25.3164 8.69922C25.3164 7.55078 24.3789 6.61328 23.2305 6.61328C22.082 6.61328 21.1445 7.55078 21.1445 8.69922C21.1445 9.84766 22.082 10.7852 23.2305 10.7852Z" fill="#010101"/>
</g>
<defs>
<clipPath id="clip0_63_869">
<rect width="25.1953" height="21.8086" fill="white" transform="translate(0.25 1)"/>
</clipPath>
</defs>
</svg>
