<svg width="25" height="27" viewBox="0 0 25 27" fill="none" xmlns="http://www.w3.org/2000/svg">
<g clip-path="url(#clip0_63_777)">
<path d="M12.2383 15.375C12.707 15.375 13.1641 15.2227 13.7266 14.8945L22.8906 9.57422C23.8398 9.02344 24.2031 8.58984 24.2031 7.94531C24.2031 7.3125 23.8398 6.87891 22.8906 6.32812L13.7266 1.00781C13.1641 0.679688 12.707 0.527344 12.2383 0.527344C11.7578 0.527344 11.3125 0.679688 10.7383 1.00781L1.57422 6.32812C0.625 6.87891 0.261719 7.3125 0.261719 7.94531C0.261719 8.58984 0.625 9.02344 1.57422 9.57422L10.7383 14.8945C11.3125 15.2227 11.7578 15.375 12.2383 15.375ZM12.2383 21.1523C12.6602 21.1523 13.0234 20.9531 13.5156 20.6602L23.582 14.7188C24.0156 14.4492 24.2148 14.0625 24.2148 13.6992C24.2148 13.2188 23.8633 12.8203 23.5352 12.668L12.6836 18.9375C12.5078 19.0312 12.3672 19.1016 12.2383 19.1016C12.0977 19.1016 11.957 19.0312 11.7812 18.9375L0.929688 12.668C0.601562 12.8203 0.25 13.2188 0.25 13.6992C0.25 14.0625 0.460938 14.4609 0.894531 14.7188L10.9492 20.6602C11.4531 20.9531 11.8047 21.1523 12.2383 21.1523ZM12.2383 26.543C12.6602 26.543 13.0234 26.3438 13.5156 26.0508L23.582 20.1094C24.0039 19.8633 24.2148 19.4531 24.2148 19.0898C24.2148 18.6094 23.8633 18.2227 23.5352 18.0586L12.6836 24.3398C12.5078 24.4336 12.3672 24.5039 12.2383 24.5039C12.0977 24.5039 11.957 24.4336 11.7812 24.3398L0.929688 18.0586C0.601562 18.2227 0.25 18.6094 0.25 19.0898C0.25 19.4531 0.460938 19.8633 0.894531 20.1094L10.9492 26.0508C11.4531 26.3438 11.8047 26.543 12.2383 26.543Z" fill="black" fill-opacity="0.85"/>
</g>
<defs>
<clipPath id="clip0_63_777">
<rect width="23.9648" height="26.543" fill="white" transform="translate(0.25)"/>
</clipPath>
</defs>
</svg>
