<svg width="30" height="26" viewBox="0 0 30 26" fill="none" xmlns="http://www.w3.org/2000/svg">
<g clip-path="url(#clip0_63_1011)">
<path d="M4.42969 23.8008H16.6289C16.2891 23.2148 16.0312 22.582 15.8672 21.9141H4.25391C3.21094 21.9141 2.63672 21.3633 2.63672 20.2734V9.22266C2.63672 8.14453 3.21094 7.58203 4.25391 7.58203H20.5898C21.6328 7.58203 22.2188 8.14453 22.2188 9.22266V12.5508C22.5586 12.5156 22.8633 12.4922 23.1797 12.4922C23.4844 12.4922 23.8008 12.5156 24.1055 12.5508V5.85938C24.1055 3.44531 22.8867 2.22656 20.4375 2.22656H4.42969C1.98047 2.22656 0.75 3.43359 0.75 5.85938V20.168C0.75 22.5938 1.98047 23.8008 4.42969 23.8008ZM6.28125 11.9414H18.5977C19.0078 11.9414 19.3125 11.6133 19.3125 11.2031C19.3125 10.8047 19.0078 10.5 18.5977 10.5H6.28125C5.85938 10.5 5.54297 10.8047 5.54297 11.2031C5.54297 11.6133 5.85938 11.9414 6.28125 11.9414ZM6.28125 15.4688H17.1797C17.5898 14.918 18.0469 14.4375 18.5859 14.0273H6.28125C5.85938 14.0273 5.54297 14.3438 5.54297 14.7656C5.54297 15.1641 5.85938 15.4688 6.28125 15.4688ZM6.28125 18.9961H14.0977C14.5195 18.9961 14.8242 18.6914 14.8242 18.293C14.8242 17.8828 14.5195 17.5547 14.0977 17.5547H6.28125C5.85938 17.5547 5.54297 17.8828 5.54297 18.293C5.54297 18.6914 5.85938 18.9961 6.28125 18.9961ZM23.1797 26.0039C26.4023 26.0039 29.1328 23.3086 29.1328 20.0508C29.1328 16.7812 26.4375 14.0977 23.1797 14.0977C19.9102 14.0977 17.2266 16.793 17.2266 20.0508C17.2266 23.332 19.9102 26.0039 23.1797 26.0039ZM23.1797 23.7773C22.7461 23.7773 22.4648 23.4961 22.4648 23.0625V20.7656H20.168C19.7461 20.7656 19.4531 20.4844 19.4531 20.0508C19.4531 19.6172 19.7461 19.3359 20.168 19.3359H22.4648V17.0391C22.4648 16.6172 22.7461 16.3242 23.1797 16.3242C23.6133 16.3242 23.8945 16.6172 23.8945 17.0391V19.3359H26.1797C26.6133 19.3359 26.9062 19.6172 26.9062 20.0508C26.9062 20.4844 26.6133 20.7656 26.1797 20.7656H23.8945V23.0625C23.8945 23.4961 23.6133 23.7773 23.1797 23.7773Z" fill="black" fill-opacity="0.85"/>
</g>
<defs>
<clipPath id="clip0_63_1011">
<rect width="28.3828" height="26.0039" fill="white" transform="translate(0.75)"/>
</clipPath>
</defs>
</svg>
